<svg xmlns="http://www.w3.org/2000/svg" xmlns:xlink="http://www.w3.org/1999/xlink" width="253" zoomAndPan="magnify" viewBox="0 0 189.75 27.749998" height="37" preserveAspectRatio="xMidYMid meet" version="1.0"><defs><g/><clipPath id="0af07c8751"><path d="M 0.722656 0 L 188.777344 0 L 188.777344 27.503906 L 0.722656 27.503906 Z M 0.722656 0 " clip-rule="nonzero"/></clipPath><clipPath id="8386b763bb"><path d="M 0.722656 0 L 27.480469 0 L 27.480469 26.757812 L 0.722656 26.757812 Z M 0.722656 0 " clip-rule="nonzero"/></clipPath></defs><g clip-path="url(#0af07c8751)"><path fill="#ffffff" d="M 0.722656 0 L 188.777344 0 L 188.777344 27.503906 L 0.722656 27.503906 Z M 0.722656 0 " fill-opacity="1" fill-rule="nonzero"/></g><g clip-path="url(#8386b763bb)"><path fill="#ffffff" d="M 27.074219 17.957031 C 26.792969 17.957031 26.566406 17.726562 26.566406 17.445312 L 26.566406 1.792969 L 17.902344 10.453125 C 17.703125 10.652344 17.382812 10.652344 17.183594 10.453125 C 16.984375 10.253906 16.984375 9.933594 17.183594 9.734375 L 26.714844 0.199219 C 26.859375 0.0546875 27.078125 0.0117188 27.269531 0.0898438 C 27.460938 0.167969 27.585938 0.355469 27.585938 0.5625 L 27.585938 17.445312 C 27.585938 17.726562 27.359375 17.957031 27.074219 17.957031 Z M 1.296875 26.851562 C 1.011719 26.851562 0.785156 26.625 0.785156 26.339844 L 0.785156 8.550781 C 0.785156 8.34375 0.910156 8.160156 1.101562 8.078125 C 1.289062 8 1.511719 8.042969 1.65625 8.191406 L 10.550781 17.085938 C 10.75 17.285156 10.75 17.609375 10.550781 17.808594 C 10.351562 18.007812 10.027344 18.007812 9.828125 17.808594 L 1.804688 9.78125 L 1.804688 26.339844 C 1.804688 26.625 1.578125 26.851562 1.296875 26.851562 Z M 27.074219 26.851562 C 26.945312 26.851562 26.8125 26.800781 26.714844 26.703125 L 0.933594 0.921875 C 0.734375 0.722656 0.734375 0.398438 0.933594 0.199219 C 1.132812 0 1.457031 0 1.65625 0.199219 L 27.4375 25.980469 C 27.636719 26.179688 27.636719 26.503906 27.4375 26.703125 C 27.335938 26.800781 27.207031 26.851562 27.074219 26.851562 " fill-opacity="1" fill-rule="nonzero"/></g><g fill="#fffbfa" fill-opacity="1"><g transform="translate(42.894936, 19.683313)"><g><path d="M 4.171875 0 C 4.390625 0 4.5 -0.109375 4.5 -0.328125 L 4.5 -4.8125 L 7.3125 -1.53125 C 7.46875 -1.34375 7.640625 -1.34375 7.78125 -1.53125 L 10.640625 -4.859375 L 10.640625 -0.328125 C 10.640625 -0.109375 10.75 0 10.96875 0 L 13.546875 0 C 13.78125 0 13.890625 -0.109375 13.890625 -0.328125 L 13.890625 -12.21875 C 13.890625 -12.84375 13.453125 -12.984375 13.078125 -12.5 L 7.546875 -5.59375 L 2.0625 -12.5 C 1.671875 -13.015625 1.25 -12.84375 1.25 -12.21875 L 1.25 -0.328125 C 1.25 -0.109375 1.375 0 1.59375 0 Z M 4.171875 0 "/></g></g></g><g fill="#fffbfa" fill-opacity="1"><g transform="translate(71.381479, 19.683313)"><g><path d="M 6.890625 -12.5 C 6.640625 -13.015625 6.234375 -13.015625 5.984375 -12.5 L 0.25 -0.40625 C 0.140625 -0.15625 0.25 0 0.5 0 L 3.4375 0 C 3.609375 0 3.75 -0.09375 3.8125 -0.265625 L 4.21875 -1.3125 L 8.640625 -1.3125 L 9.046875 -0.265625 C 9.125 -0.09375 9.25 0 9.4375 0 L 12.375 0 C 12.625 0 12.71875 -0.15625 12.625 -0.40625 Z M 6.4375 -6.953125 L 7.671875 -3.8125 L 5.203125 -3.8125 Z M 6.4375 -6.953125 "/></g></g></g><g fill="#fffbfa" fill-opacity="1"><g transform="translate(97.613098, 19.683313)"><g><path d="M 9.359375 0 C 9.578125 0 9.6875 -0.109375 9.6875 -0.328125 L 9.6875 -2.5 C 9.6875 -2.71875 9.578125 -2.828125 9.359375 -2.828125 L 4.5625 -2.828125 L 4.5625 -4.296875 L 8.703125 -4.296875 C 8.921875 -4.296875 9.03125 -4.421875 9.03125 -4.625 L 9.03125 -6.640625 C 9.03125 -6.859375 8.921875 -6.96875 8.703125 -6.96875 L 4.5625 -6.96875 L 4.5625 -9.671875 L 9.359375 -9.671875 C 9.578125 -9.671875 9.6875 -9.78125 9.6875 -10 L 9.6875 -12.171875 C 9.6875 -12.390625 9.578125 -12.5 9.359375 -12.5 L 1.578125 -12.5 C 1.34375 -12.5 1.234375 -12.390625 1.234375 -12.171875 L 1.234375 -0.328125 C 1.234375 -0.109375 1.34375 0 1.578125 0 Z M 9.359375 0 "/></g></g></g><g fill="#fffbfa" fill-opacity="1"><g transform="translate(121.597931, 19.683313)"><g><path d="M 9.328125 -4.703125 C 10.546875 -5.34375 11.25 -6.671875 11.25 -8.484375 C 11.25 -10.625 10.296875 -12.5 6.765625 -12.5 L 1.578125 -12.5 C 1.34375 -12.5 1.234375 -12.390625 1.234375 -12.171875 L 1.234375 -0.328125 C 1.234375 -0.109375 1.34375 0 1.578125 0 L 4.25 0 C 4.46875 0 4.578125 -0.109375 4.578125 -0.328125 L 4.578125 -4.265625 L 5.984375 -4.265625 L 8 -0.25 C 8.078125 -0.078125 8.203125 0 8.390625 0 L 11.421875 0 C 11.671875 0 11.765625 -0.15625 11.65625 -0.40625 Z M 6.1875 -9.671875 C 6.859375 -9.671875 7.921875 -9.671875 7.921875 -8.453125 C 7.921875 -7.09375 6.65625 -7.09375 6.1875 -7.09375 L 4.578125 -7.09375 L 4.578125 -9.671875 Z M 6.1875 -9.671875 "/></g></g></g><g fill="#fffbfa" fill-opacity="1"><g transform="translate(147.316701, 19.683313)"><g><path d="M 7.5 0.328125 C 11.578125 0.328125 14.296875 -2.234375 14.296875 -6.25 C 14.296875 -10.265625 11.578125 -12.84375 7.5 -12.84375 C 3.4375 -12.84375 0.734375 -10.265625 0.734375 -6.25 C 0.734375 -2.234375 3.4375 0.328125 7.5 0.328125 Z M 7.5 -2.671875 C 5.4375 -2.671875 4.0625 -4.03125 4.0625 -6.25 C 4.0625 -8.46875 5.4375 -9.828125 7.5 -9.828125 C 9.59375 -9.828125 10.96875 -8.46875 10.96875 -6.25 C 10.96875 -4.03125 9.59375 -2.671875 7.5 -2.671875 Z M 7.5 -2.671875 "/></g></g></g></svg>